<?xml version="1.0" encoding="utf-8"?>
<!-- Generator: Adobe Illustrator 20.0.0, SVG Export Plug-In . SVG Version: 6.00 Build 0)  -->
<svg version="1.1" id="Layer_1" xmlns="http://www.w3.org/2000/svg" xmlns:xlink="http://www.w3.org/1999/xlink" x="0px" y="0px"
	 width="183.9px" height="183.9px" viewBox="0 0 183.9 183.9" style="enable-background:new 0 0 183.9 183.9;" xml:space="preserve"
	>
<style type="text/css">
	.st0{fill:#333333;}
</style>
<g>
	<path class="st0" d="M120.1,71.1v67.6c0,13-10.5,23.5-23.5,23.5S73,151.7,73,138.7V65.2c0-8.1,6.6-14.7,14.7-14.7
		s14.7,6.6,14.7,14.7v61.7c0,3.2-2.6,5.9-5.9,5.9s-5.9-2.6-5.9-5.9V71.1h-8.8v55.9c0,8.1,6.6,14.7,14.7,14.7s14.7-6.6,14.7-14.7
		V65.2c0-13-10.5-23.5-23.5-23.5S64.2,52.2,64.2,65.2v73.5c0,17.9,14.5,32.3,32.3,32.3s32.3-14.5,32.3-32.3V71.1H120.1z"/>
	<path class="st0" d="M107.6,16.9c4.3,0,7.6,3.5,7.6,7.6c0,4.3-3.5,7.6-7.6,7.6c-4.3,0-7.6-3.5-7.6-7.6S103.2,16.9,107.6,16.9z"/>
	<path class="st0" d="M66.6,16.9c4.3,0,7.6,3.5,7.6,7.6c0,4.3-3.5,7.6-7.6,7.6c-4.3,0-7.6-3.5-7.6-7.6S62.5,16.9,66.6,16.9z"/>
</g>
</svg>
